<?xml version="1.0" encoding="UTF-8" standalone="no"?>
<svg
   xmlns:dc="http://purl.org/dc/elements/1.1/"
   xmlns:cc="http://creativecommons.org/ns#"
   xmlns:rdf="http://www.w3.org/1999/02/22-rdf-syntax-ns#"
   xmlns:svg="http://www.w3.org/2000/svg"
   xmlns="http://www.w3.org/2000/svg"
   version="1.1"
   id="svg2"
   viewBox="0 0 744.09448819 1052.3622047"
   height="297mm"
   width="210mm">
  <defs
     id="defs4" />
  <metadata
     id="metadata7">
    <rdf:RDF>
      <cc:Work
         rdf:about="">
        <dc:format>image/svg+xml</dc:format>
        <dc:type
           rdf:resource="http://purl.org/dc/dcmitype/StillImage" />
        <dc:title></dc:title>
      </cc:Work>
    </rdf:RDF>
  </metadata>
  <g
     id="layer1">
    <path
       id="path3347"
       d="m 478.23439,500.83932 c -0.84504,-0.22538 -0.60344,-0.69603 0.35729,-0.69603 0.48527,0 0.97467,-0.14946 1.08757,-0.33214 0.13599,-0.22003 0.004,-0.26832 -0.39048,-0.14305 -0.37169,0.11797 -0.86307,-0.0274 -1.30652,-0.38646 -0.61245,-0.49593 -0.66927,-0.69402 -0.41078,-1.43195 0.28124,-0.80289 0.41677,-0.86198 2.16896,-0.94572 1.52538,-0.0729 1.86896,-0.004 1.86896,0.375 0,0.25538 -0.135,0.46432 -0.3,0.46432 -0.165,0 -0.3,0.59953 -0.3,1.33229 0,0.73277 -0.10125,1.39189 -0.225,1.46473 -0.42666,0.25111 -2.02631,0.43869 -2.55,0.29901 z m 1.522,-2.39617 c -0.14597,-0.75263 -0.847,-0.85597 -0.847,-0.12486 0,0.3685 0.19371,0.625 0.472,0.625 0.27937,0 0.43241,-0.20411 0.375,-0.50014 z m 2.6495,0.85152 c -0.65134,-0.71971 -0.62767,-1.33969 0.0754,-1.97599 0.78363,-0.70917 2.38026,-0.52186 2.95354,0.3465 0.41158,0.62344 0.3924,0.69239 -0.26595,0.95599 -0.57634,0.23076 -0.60409,0.28766 -0.1478,0.3031 0.46484,0.0158 0.49732,0.0966 0.18827,0.46902 -0.52072,0.62743 -2.19989,0.56836 -2.8035,-0.0986 z m 1.82225,-0.53263 c -0.0997,-0.0997 -0.35844,-0.11034 -0.575,-0.0237 -0.23932,0.0958 -0.16823,0.16685 0.18125,0.18125 0.31625,0.013 0.49344,-0.0579 0.39375,-0.15757 z m 0.0813,-0.85104 c 0,-0.31665 -0.57573,-0.44968 -0.74698,-0.1726 -0.10363,0.16769 0.022,0.30489 0.27927,0.30489 0.25724,0 0.46771,-0.0595 0.46771,-0.13229 z m 2.23145,1.31179 c -0.51247,-0.56627 -0.52227,-0.69082 -0.11208,-1.425 0.60016,-1.07419 2.30097,-1.27126 3.12387,-0.36196 0.68346,0.75521 0.38811,1.11987 -1.04324,1.28806 l -1.05,0.12338 1.16173,0.048 c 0.99626,0.0412 1.10854,0.11211 0.78827,0.49801 -0.55069,0.66354 -2.20262,0.56535 -2.86855,-0.1705 z m 1.96855,-1.31179 c 0,-0.31665 -0.57573,-0.44968 -0.74698,-0.1726 -0.10363,0.16769 0.022,0.30489 0.27927,0.30489 0.25724,0 0.46771,-0.0595 0.46771,-0.13229 z m 1.95,-0.16771 c 0,-2.09091 0.004,-2.1 0.825,-2.1 0.77936,0 0.825,0.0757 0.825,1.36771 0,0.87105 0.11337,1.29763 0.3122,1.17475 0.17171,-0.10613 0.23012,-0.45159 0.12979,-0.76771 -0.15269,-0.48106 -0.0324,-0.57475 0.73779,-0.57475 1.04191,0 1.12544,0.17599 0.44198,0.9312 -0.44055,0.4868 -0.42872,0.55937 0.15,0.92079 0.34553,0.21578 0.62824,0.56237 0.62824,0.77018 0,0.63889 -1.43316,0.42468 -1.93299,-0.28892 l -0.46701,-0.66675 0,0.66675 c 0,0.52736 -0.17247,0.66675 -0.825,0.66675 -0.82143,0 -0.825,-0.009 -0.825,-2.1 z m -13.72867,-1.69696 c -0.72482,-0.20352 -0.34919,-0.70304 0.52867,-0.70304 0.39302,0 0.79707,-0.13346 0.89788,-0.29656 0.10301,-0.16668 -0.0104,-0.22226 -0.25886,-0.1269 -0.76935,0.29523 -1.68902,-0.42737 -1.68902,-1.32709 0,-1.20665 0.5188,-1.54945 2.34499,-1.54945 1.53877,0 1.61539,0.0358 1.4441,0.675 -0.0995,0.37125 -0.18274,1.02045 -0.18499,1.44266 -0.002,0.42221 -0.17285,0.99415 -0.3791,1.27096 -0.39914,0.5357 -1.82777,0.86036 -2.70367,0.61442 z m 1.57867,-2.50304 c 0,-0.63272 -0.43646,-0.80731 -0.75,-0.3 -0.21876,0.35396 0.065,0.9 0.46771,0.9 0.15526,0 0.28229,-0.27 0.28229,-0.6 z m -13.95538,0.4743 -0.005,-1.92496 1.2903,-0.10262 c 0.70967,-0.0564 1.53715,-0.0113 1.83885,0.1003 1.324,0.48978 0.77707,2.81207 -0.65735,2.79114 -0.64543,-0.009 -0.77653,0.098 -0.64099,0.525 0.14034,0.44219 -0.005,0.53677 -0.82483,0.53647 l -0.99522,-3.7e-4 -0.005,-1.92496 z m 2.50238,-0.57416 c 0.0574,-0.29603 -0.0956,-0.50014 -0.375,-0.50014 -0.27829,0 -0.472,0.2565 -0.472,0.625 0,0.73111 0.70103,0.62777 0.847,-0.12486 z m 1.96839,0.10656 0,-1.4933 1.4423,0.0325 c 1.55389,0.035 1.94012,0.56658 0.83961,1.15556 -0.45049,0.24109 -0.55593,0.50894 -0.41748,1.06055 0.16969,0.67612 0.0993,0.738 -0.8396,0.738 l -1.02483,0 0,-1.4933 z m 3.66621,1.10351 c -0.80443,-0.58822 -0.53241,-2.05999 0.46901,-2.53767 1.67304,-0.79806 3.37822,1.02486 2.18845,2.33955 -0.60999,0.67403 -1.87739,0.76852 -2.65746,0.19812 z m 1.6184,-1.11021 c 0,-0.63272 -0.43646,-0.80731 -0.75,-0.3 -0.21876,0.35396 0.065,0.9 0.46771,0.9 0.15526,0 0.28229,-0.27 0.28229,-0.6 z m 6.41539,0.007 0,-1.4933 1.4423,0.0325 c 1.16212,0.0262 1.44231,0.13464 1.44231,0.55832 0,0.28919 -0.27539,0.59783 -0.61198,0.68585 -0.48842,0.12772 -0.57271,0.31649 -0.41748,0.93499 0.18071,0.71999 0.12182,0.77495 -0.83032,0.77495 l -1.02483,0 0,-1.4933 z m 3.2931,1.04331 c -0.30669,-0.7992 0.13481,-1.35 1.0821,-1.35 0.50017,0 0.90941,-0.14112 0.90941,-0.31359 0,-0.19592 -0.39403,-0.23968 -1.05,-0.11662 -1.25402,0.23526 -1.45785,-0.32958 -0.28047,-0.77722 1.60669,-0.61086 2.37529,-0.10809 2.64838,1.73243 l 0.18918,1.275 -1.66296,0 c -1.20144,0 -1.71089,-0.12489 -1.83564,-0.45 z m 1.84151,-0.45 c 0.10198,-0.165 -0.033,-0.3 -0.3,-0.3 -0.26698,0 -0.40198,0.135 -0.3,0.3 0.10198,0.165 0.23698,0.3 0.3,0.3 0.063,0 0.19802,-0.135 0.3,-0.3 z m 2.36539,-0.59607 0,-1.49607 2.6423,0.0206 c 2.33308,0.0182 2.64231,0.0836 2.64231,0.55857 0,0.29588 0.0844,0.95984 0.1875,1.47546 0.17191,0.85953 0.122,0.9375 -0.6,0.9375 -0.7,0 -0.7875,-0.11666 -0.7875,-1.05 0,-0.5775 -0.15002,-1.05 -0.33339,-1.05 -0.21853,0 -0.26552,0.36173 -0.1364,1.05 l 0.19698,1.05 -1.9059,0 -1.9059,0 z m 1.88329,-0.37893 c -0.0832,-0.20625 -0.15131,-0.0375 -0.15131,0.375 0,0.4125 0.0681,0.58125 0.15131,0.375 0.0832,-0.20625 0.0832,-0.54375 0,-0.75 z m 4.41671,0.37893 0,-1.49607 2.66119,0.0208 c 1.75128,0.0136 2.69803,0.14053 2.76893,0.37107 0.0593,0.19268 0.19188,0.85657 0.29471,1.47532 0.18192,1.09465 0.16232,1.125 -0.72663,1.125 -0.84699,-1e-5 -0.91359,-0.0778 -0.91359,-1.06772 0,-0.67477 -0.11687,-0.99547 -0.31757,-0.87144 -0.18216,0.11259 -0.23595,0.56782 -0.12616,1.06771 0.17267,0.78616 0.11568,0.87144 -0.58243,0.87144 -0.68439,0 -0.77384,-0.12137 -0.77384,-1.05 0,-0.5775 -0.15002,-1.05 -0.33339,-1.05 -0.21853,0 -0.26552,0.36173 -0.1364,1.05 0.1933,1.0304 0.1782,1.05 -0.80892,1.05 l -1.0059,0 0,-1.49607 z m 6.79967,1.06421 c -0.60128,-0.72449 -0.25888,-2.06896 0.63555,-2.4956 1.44767,-0.69055 3.35958,0.7662 2.15838,1.64455 -0.3425,0.25044 -0.38734,0.38291 -0.12959,0.38291 0.31626,0 0.32033,0.0888 0.0206,0.45 -0.47549,0.57293 -2.21476,0.58468 -2.68495,0.0181 z m 2.00369,-0.64939 c -0.0997,-0.0997 -0.35844,-0.11034 -0.575,-0.0237 -0.23932,0.0958 -0.16823,0.16685 0.18125,0.18125 0.31625,0.013 0.49344,-0.0579 0.39375,-0.15757 z m -0.2188,-1.01906 c 0,-0.165 -0.12703,-0.3 -0.28229,-0.3 -0.15527,0 -0.36573,0.135 -0.46771,0.3 -0.10198,0.165 0.0251,0.3 0.28229,0.3 0.25724,0 0.46771,-0.135 0.46771,-0.3 z m 1.91539,0.6067 0,-1.4933 1.4423,0.0325 c 1.16212,0.0262 1.44231,0.13464 1.44231,0.55832 0,0.28919 -0.27539,0.59783 -0.61198,0.68585 -0.48842,0.12772 -0.57271,0.31649 -0.41748,0.93499 0.18071,0.71999 0.12182,0.77495 -0.83032,0.77495 l -1.02483,0 0,-1.4933 z m -37.38983,-4.95515 c -0.28843,-1.10562 -1.25777,-3.58327 -2.15408,-5.50589 -1.3979,-2.99855 -1.68108,-3.91576 -1.99127,-6.44977 -1.45689,-11.90152 4.23702,-20.18909 15.91979,-23.1715 3.44585,-0.87967 11.4996,-0.80694 15,0.13545 4.49729,1.21078 8.16684,3.34589 9.74693,5.6712 l 0.75307,1.10824 0.0299,-1.19464 c 0.0261,-1.04086 0.0608,-1.0981 0.27009,-0.44464 0.1321,0.4125 0.25365,1.26535 0.2701,1.89522 0.0246,0.94323 0.12249,1.1177 0.5549,0.98924 0.28875,-0.0858 0.93,-0.23656 1.425,-0.33506 0.87892,-0.1749 0.87573,-0.16794 -0.13629,0.29704 -1.39374,0.64037 -1.37628,0.58046 -0.50301,1.72537 1.30558,1.71171 1.99529,3.66235 2.19064,6.19562 0.22381,2.90232 -0.0436,4.37906 -2.15178,11.88257 -0.8808,3.135 -1.73333,6.24 -1.8945,6.9 -0.28115,1.1513 -0.29444,1.11477 -0.32723,-0.9 -0.0188,-1.155 -0.28881,-3.7875 -0.60003,-5.85 -0.31121,-2.0625 -0.65477,-4.50846 -0.76347,-5.43548 l -0.19763,-1.68547 -2.1578,0.87812 c -1.18679,0.48297 -2.4618,1.16372 -2.83335,1.51277 -1.27042,1.1935 -0.55847,-0.50153 1.53066,-3.64424 1.03599,-1.55845 1.52368,-2.62423 1.62919,-3.56029 l 0.15059,-1.336 -2.518,1.73214 c -3.32499,2.28727 -8.75598,4.869 -13.40181,6.43031 -2.02119,0.67926 -3.7811,1.20779 -3.9,1.20737 -0.1189,-3e-4 0.57145,-0.4757 1.5341,-1.05618 0.96265,-0.58047 2.2963,-1.49137 2.96366,-2.02423 1.2189,-0.97322 3.34413,-3.51075 3.12437,-3.73051 -0.0647,-0.0647 -1.00405,0.50203 -2.08747,1.25939 -2.40588,1.68184 -5.42647,3.09353 -9.20084,4.30009 -4.52762,1.44735 -4.39049,1.45444 -2.68706,-0.13892 1.4578,-1.36361 2.38706,-2.68741 2.38706,-3.40057 0,-0.17682 -0.91125,0.43539 -2.025,1.36048 -1.11375,0.92509 -3.1961,2.24344 -4.62744,2.92969 l -2.60244,1.2477 0.144,4.20192 c 0.0792,2.31105 0.0353,5.05956 -0.0976,6.1078 l -0.24151,1.9059 z m 4.33444,-0.21155 c -0.198,-0.198 -0.36,-1.01224 -0.36,-1.80941 0,-1.01163 -0.13592,-1.50158 -0.45,-1.6221 -0.2475,-0.095 -0.45,-0.3463 -0.45,-0.55849 0,-0.21219 0.2025,-0.46351 0.45,-0.55849 0.29868,-0.11461 0.45,-0.586 0.45,-1.40182 0,-1.52336 0.43886,-2.38969 1.21055,-2.38969 0.69443,0 0.78511,0.46072 0.13945,0.70849 -0.27203,0.10438 -0.45175,0.56201 -0.45442,1.1571 -0.002,0.54142 -0.17728,1.32191 -0.38854,1.73441 -0.31249,0.61013 -0.31201,0.88987 0.003,1.5 0.21268,0.4125 0.38752,1.17431 0.38854,1.6929 10e-4,0.56005 0.18457,1.01302 0.45185,1.11559 0.2475,0.095 0.45,0.31191 0.45,0.4821 0,0.42527 -0.99924,0.39017 -1.44,-0.0506 z m 9.54,0.0749 c 0,-0.1568 0.18752,-0.39305 0.4167,-0.525 0.98977,-0.56983 0.92687,-6.44942 -0.0768,-7.18335 -0.63282,-0.46273 -0.17215,-0.93671 0.49953,-0.51398 0.32466,0.20433 0.58358,0.90762 0.71098,1.93118 0.1102,0.8854 0.34645,1.65851 0.525,1.71803 0.42322,0.14107 0.4197,0.87652 -0.005,1.01805 -0.18123,0.0604 -0.40139,0.78041 -0.48924,1.59999 -0.0879,0.8196 -0.29361,1.65892 -0.45723,1.86517 -0.34924,0.44021 -1.12404,0.50218 -1.12404,0.0899 z m 8.46,-0.0749 c -0.198,-0.198 -0.36,-0.93086 -0.36,-1.62857 0,-0.72762 -0.19189,-1.46046 -0.45,-1.71857 -0.54333,-0.54333 -0.57807,-1.00017 -0.0885,-1.16337 0.19884,-0.0663 0.43509,-0.83982 0.525,-1.71897 0.10696,-1.04601 0.33993,-1.70921 0.67407,-1.91888 0.72608,-0.45563 1.03041,4e-5 0.43755,0.65514 -0.28818,0.31844 -0.49816,1.05265 -0.49816,1.74184 0,0.65526 -0.14676,1.33814 -0.32614,1.51752 -0.23485,0.23485 -0.23485,0.38256 0,0.52771 0.17938,0.11086 0.32614,0.78456 0.32614,1.49712 0,0.78563 0.17712,1.44256 0.45,1.66903 0.2475,0.20541 0.45,0.49194 0.45,0.63673 0,0.38333 -0.72113,0.32214 -1.14,-0.0967 z m 9.54,0.0967 c 0,-0.14479 0.2025,-0.43132 0.45,-0.63673 0.26859,-0.22291 0.45,-0.8787 0.45,-1.62673 0,-0.6893 0.14676,-1.40003 0.32614,-1.57941 0.23485,-0.23485 0.23485,-0.38256 0,-0.5277 -0.17938,-0.11087 -0.32614,-0.70356 -0.32614,-1.31711 0,-0.61355 -0.21627,-1.42432 -0.4806,-1.8017 -0.55762,-0.79611 -0.32149,-1.221 0.41999,-0.75571 0.33413,0.20967 0.56711,0.87287 0.67407,1.91888 0.0899,0.87915 0.32616,1.65269 0.525,1.71897 0.48961,0.1632 0.45487,0.62004 -0.0885,1.16337 -0.25811,0.25811 -0.45,0.99095 -0.45,1.71857 0,0.69771 -0.162,1.43057 -0.36,1.62857 -0.41887,0.41887 -1.14,0.48006 -1.14,0.0967 z m -13.5,-3.93673 c 0,-1.6 0.12222,-2.7 0.3,-2.7 0.17778,0 0.3,1.1 0.3,2.7 0,1.6 -0.12222,2.7 -0.3,2.7 -0.17778,0 -0.3,-1.1 -0.3,-2.7 z m -9.72857,1.02857 c -0.9552,-0.9552 -0.28104,-2.82857 1.0179,-2.82857 0.30056,0 0.62747,0.21106 0.72646,0.46901 0.099,0.25796 0.3062,0.391 0.46049,0.29565 0.53473,-0.33048 0.68193,1.05182 0.19168,1.80003 -0.55559,0.84795 -1.6878,0.97261 -2.39653,0.26388 z m 18.0662,0.0964 c -0.82518,-0.64867 -0.93266,-1.62997 -0.25297,-2.30965 0.73826,-0.73827 1.81534,-0.81733 1.81534,-0.13325 0,0.30527 0.16505,0.41876 0.45,0.30941 0.44042,-0.169 0.59514,0.26655 0.4648,1.30849 -0.0705,0.56351 -0.87396,1.2 -1.5148,1.2 -0.26693,0 -0.69999,-0.16875 -0.96237,-0.375 z"
       style="fill:#1d1d1d" />
  </g>
</svg>
